Coordinates
version=1
nRows=24
nColumns=24
inDegrees=yes

Units are S.I. units (second, meters, Newtons, ...)
Angles are in degrees.

endheader
time	pelvis_tilt	pelvis_list	pelvis_rotation	pelvis_tx	pelvis_ty	pelvis_tz	hip_flexion_r	hip_adduction_r	hip_rotation_r	knee_angle_r	ankle_angle_r	subtalar_angle_r	mtp_angle_r	hip_flexion_l	hip_adduction_l	hip_rotation_l	knee_angle_l	ankle_angle_l	subtalar_angle_l	mtp_angle_l	lumbar_extension	lumbar_bending	lumbar_rotation
      0.47900000	     -5.60716493	      1.30107428	      3.22138989	     -0.74823041	      1.02010757	      0.27544121	     25.60716424	      0.75478225	     -6.80378111	      2.95741115	      6.17203829	     -0.34576802	     13.54229230	     -6.48746077	      5.46197038	      5.90320600	    -15.32873232	      8.03609586	     -4.37972781	      2.98319298	     -1.14945526	     -3.57678728	     -4.74688910
      0.48316667	     -5.54147446	      1.21358726	      3.35015118	     -0.74235301	      1.01974902	      0.27546934	     25.49474637	      0.87184329	     -6.43696554	      2.55433720	      6.54079524	     -0.45318783	     10.35296074	     -6.51169806	      5.32654333	      5.82214794	    -16.08104088	      7.99321650	     -4.11697485	      1.68615544	     -1.16202241	     -3.48065089	     -4.70136336
      0.48733333	     -5.50463627	      1.12197823	      3.48007174	     -0.73645834	      1.01935419	      0.27546479	     25.43368943	      0.98697421	     -6.09647444	      2.07140139	      6.79856841	     -0.62041345	     10.36522969	     -6.50052086	      5.20472742	      5.85105960	    -16.84597464	      7.89015001	     -4.06588593	      1.71576275	     -1.14341184	     -3.35229576	     -4.72863315
      0.49150000	     -5.41496580	      1.01892397	      3.61602507	     -0.73050819	      1.01904666	      0.27547101	     25.30346462	      1.11848329	     -5.74713865	      1.57437465	      7.01352225	     -0.90588529	     10.39176475	     -6.51732078	      5.05293206	      5.79265313	    -17.65350385	      7.74423002	     -3.89144208	      1.78846839	     -1.18442802	     -3.21207213	     -4.80193354
      0.49566667	     -5.32379750	      0.89799077	      3.76010834	     -0.72452978	      1.01874377	      0.27548738	     25.16488896	      1.27125165	     -5.39636178	      1.07374390	      7.03129424	     -1.40625261	     10.45439483	     -6.49593373	      4.86868798	      5.65407187	    -18.53707169	      7.63746923	     -3.58702695	      1.99378791	     -1.22614159	     -3.06218057	     -4.89692985
      0.49983333	     -5.19373119	      0.77972508	      3.89236007	     -0.71850695	      1.01850797	      0.27551883	     24.97768814	      1.42978404	     -5.02696263	      0.56085886	      7.05731437	     -1.88801693	     10.54347171	     -6.51503456	      4.68887546	      5.54769622	    -19.41111443	      7.43131954	     -3.38365920	      2.26758949	     -1.30901305	     -2.90364820	     -4.96192514
      0.50400000	     -5.08492887	      0.66143415	      4.03118308	     -0.71245923	      1.01823950	      0.27555186	     24.81531051	      1.58903664	     -4.67129167	      0.03334054	      6.97288679	     -2.50545701	     10.67318098	     -6.48132214	      4.50562188	      5.41888820	    -20.34127367	      7.19819008	     -3.16891829	      2.67508118	     -1.35074261	     -2.74434826	     -5.03709231
      0.50816667	     -4.92233756	      0.52568679	      4.16014878	     -0.70635605	      1.01806268	      0.27559260	     24.59014704	      1.77431021	     -4.34308353	     -0.49516431	      6.86337402	     -3.09212356	     11.89255563	     -6.50129812	      4.29846770	      5.28349944	    -21.25813975	      6.78434551	     -3.09006188	      6.60410456	     -1.45196628	     -2.55172516	     -5.05365001
      0.51233333	     -4.78737215	      0.40241735	      4.29129938	     -0.70025106	      1.01786022	      0.27567438	     24.39445115	      1.95002997	     -4.02121675	     -1.02450079	      6.65253017	     -3.73621178	     11.91443082	     -6.44824148	      4.08801341	      5.06022634	    -22.25006650	      6.45073312	     -2.79835113	      6.70604798	     -1.51856676	     -2.39278505	     -5.14630417
      0.51650000	     -4.64668359	      0.27836275	      4.41184669	     -0.69412397	      1.01766782	      0.27577932	     24.18130276	      2.13638247	     -3.65943987	     -1.52800615	      6.34400466	     -4.49553215	     11.95910001	     -6.38495061	      3.87743657	      4.84644178	    -23.27053267	      6.04901126	     -2.58668894	      6.90257958	     -1.58865473	     -2.22647414	     -5.19581910
      0.52066667	     -4.50100145	      0.15056261	      4.53266428	     -0.68797364	      1.01749274	      0.27590590	     23.95666055	      2.33009115	     -3.30822054	     -2.01663505	      5.96646601	     -5.28542393	     12.02529190	     -6.30223099	      3.64914137	      4.58827376	    -24.31994911	      5.61130554	     -2.34229124	      7.19441714	     -1.66117949	     -2.05721475	     -5.24432801
      0.52483333	     -4.35918946	      0.01495892	      4.65246248	     -0.68180657	      1.01732897	      0.27606449	     23.73065891	      2.53599207	     -2.96515540	     -2.48800196	      5.51387088	     -6.12003095	     12.11385066	     -6.18957316	      3.40217205	      4.30755112	    -25.40798907	      5.10410518	     -2.09830383	      7.60018187	     -1.72480407	     -1.88327278	     -5.28343124
      0.52900000	     -4.19449317	     -0.11913547	      4.76504332	     -0.67562240	      1.01722144	      0.27625411	     23.47447573	      2.74791212	     -2.63306618	     -2.94327141	      5.00407811	     -6.95313786	     12.22148553	     -6.07820671	      3.14066098	      3.97897317	    -26.51657626	      4.52604758	     -1.83882722	      8.11406340	     -1.80992292	     -1.70911506	     -5.31599977
      0.53316667	     -4.04654522	     -0.25653362	      4.87241024	     -0.66943405	      1.01709873	      0.27647989	     23.23748223	      2.96535271	     -2.31412526	     -3.39334251	      4.45065060	     -7.77676654	     12.34302241	     -5.92261770	      2.86375833	      3.61966902	    -27.66214120	      3.87931098	     -1.58372284	      8.71676204	     -1.87332352	     -1.53441924	     -5.34020586
      0.53733333	     -3.90058515	     -0.39014129	      4.98733887	     -0.66322825	      1.01701899	      0.27670467	     23.01506690	      3.17055262	     -2.10183055	     -3.86999227	      3.92841719	     -8.42673460	     13.56865074	     -5.75273142	      2.58217157	      3.28206182	    -28.78772195	      2.93940255	     -1.47720905	     14.81872301	     -1.92780158	     -1.38008849	     -5.32410337
      0.54150000	     -3.75838343	     -0.53389794	      5.08617787	     -0.65704369	      1.01693532	      0.27698789	     22.79419707	      3.39685688	     -1.84489790	     -4.33541347	      3.38408709	     -9.13339814	     13.56293996	     -5.53318141	      2.27004762	      2.86398839	    -30.00095992	      2.19924733	     -1.18284995	     14.91367985	     -1.98405569	     -1.19482219	     -5.37042731
      0.54566667	     -3.61660236	     -0.67987465	      5.18653580	     -0.65085037	      1.01689172	      0.27729813	     22.56828461	      3.62625818	     -1.59695779	     -4.78603842	      2.80360877	     -9.84834932	     13.56923035	     -5.29338516	      1.94238164	      2.44593550	    -31.22594404	      1.33657403	     -0.93688170	     15.10695200	     -2.03380237	     -1.02129233	     -5.36938212
      0.54983333	     -3.46504428	     -0.82175263	      5.28011200	     -0.64467004	      1.01689325	      0.27764088	     22.33728497	      3.85365770	     -1.37327147	     -5.24652211	      2.24156888	    -10.51260931	     13.58745766	     -5.04172987	      1.60424916	      2.01344995	    -32.46886886	      0.39912732	     -0.69795358	     15.39759945	     -2.09622244	     -0.85122453	     -5.36381396
      0.55400000	     -3.30003757	     -0.97749275	      5.38062421	     -0.63848526	      1.01694480	      0.27798669	     22.09806210	      4.08962868	     -1.23000657	     -5.71827886	      1.71834816	    -11.05647732	     13.94251247	     -4.78324769	      1.23616478	      1.59146684	    -33.71372934	     -0.73074659	     -0.53305648	     19.29772394	     -2.17492460	     -0.67760562	     -5.33000712
      0.55816667	     -3.17404134	     -1.13193181	      5.46395033	     -0.63232880	      1.01697500	      0.27837972	     21.91424096	      4.32563208	     -1.07630904	     -6.22325409	      1.26796753	    -11.54626345	     13.93384875	     -4.44717587	      0.85731141	      1.13240390	    -35.01184172	     -1.80944934	     -0.31162370	     19.36505437	     -2.20450513	     -0.49783646	     -5.33664190
      0.56233333	     -3.04455671	     -1.28803881	      5.54667327	     -0.62618803	      1.01703283	      0.27878435	     21.73039682	      4.55995565	     -0.96557295	     -6.73383886	      0.83800097	    -11.98309279	     13.92821754	     -4.09364741	      0.46826096	      0.69596029	    -36.32240103	     -2.96219973	     -0.12419782	     19.48805414	     -2.23998579	     -0.32032505	     -5.30750504
      0.56650000	     -2.91199534	     -1.44480815	      5.63385708	     -0.62005825	      1.01713443	      0.27917436	     21.55906259	      4.78178335	     -0.96656095	     -7.28843204	      0.59177653	    -12.14219679	     13.92537227	     -3.71846036	      0.06554370	      0.26651930	    -37.64694544	     -4.20839066	      0.07788463	     19.52746450	     -2.28268398	     -0.13747121	     -5.28698650
      0.57066667	     -2.80573214	     -1.60839695	      5.70249939	     -0.61397467	      1.01721025	      0.27963520	     21.40397242	      5.02496177	     -0.86561477	     -7.80330722	      0.16372115	    -12.61185005	     13.91685641	     -3.28617892	     -0.35063582	     -0.15884831	    -39.00151886	     -5.47065924	      0.19535591	     19.69314228	     -2.29441351	      0.03392403	     -5.23968554
      0.57483333	     -2.66091400	     -1.77631160	      5.77973179	     -0.60789082	      1.01739296	      0.28007653	     21.21933238	      5.25893292	     -0.90040999	     -8.36097813	     -0.00797942	    -12.71907469	     13.91346318	     -2.87800349	     -0.78886563	     -0.56328777	    -40.34952619	     -6.79457987	      0.41388866	     19.73508860	     -2.35790455	      0.21391802	     -5.20957121
